<svg width="21" height="21" viewBox="0 0 21 21" fill="none" xmlns="http://www.w3.org/2000/svg">
<path d="M2.20833 18.875C1.63542 18.875 1.14497 18.671 0.736979 18.263C0.328993 17.855 0.125 17.3646 0.125 16.7917V2.20833C0.125 1.63542 0.328993 1.14497 0.736979 0.736979C1.14497 0.328993 1.63542 0.125 2.20833 0.125H16.7917C17.3646 0.125 17.855 0.328993 18.263 0.736979C18.671 1.14497 18.875 1.63542 18.875 2.20833V9.1875C18.5451 9.03125 18.2066 8.8967 17.8594 8.78385C17.5122 8.67101 17.1562 8.58854 16.7917 8.53646V2.20833H2.20833V16.7917H8.51042C8.5625 17.1736 8.64497 17.5382 8.75781 17.8854C8.87066 18.2326 9.00521 18.5625 9.16146 18.875H2.20833ZM2.20833 15.75V16.7917V2.20833V8.53646V8.45833V15.75ZM4.29167 13.6667C4.29167 13.9618 4.39149 14.2092 4.59115 14.4089C4.7908 14.6085 5.03819 14.7083 5.33333 14.7083H8.53646C8.58854 14.3438 8.67101 13.9878 8.78385 13.6406C8.8967 13.2934 9.02257 12.9549 9.16146 12.625H5.33333C5.03819 12.625 4.7908 12.7248 4.59115 12.9245C4.39149 13.1241 4.29167 13.3715 4.29167 13.6667ZM4.29167 9.5C4.29167 9.79514 4.39149 10.0425 4.59115 10.2422C4.7908 10.4418 5.03819 10.5417 5.33333 10.5417H10.6458C11.2014 10.0208 11.822 9.58681 12.5078 9.23958C13.1936 8.89236 13.9271 8.65799 14.7083 8.53646C14.5521 8.50174 14.3785 8.48003 14.1875 8.47135C13.9965 8.46267 13.8229 8.45833 13.6667 8.45833H5.33333C5.03819 8.45833 4.7908 8.55816 4.59115 8.75781C4.39149 8.95747 4.29167 9.20486 4.29167 9.5ZM4.29167 5.33333C4.29167 5.62847 4.39149 5.87587 4.59115 6.07552C4.7908 6.27517 5.03819 6.375 5.33333 6.375H13.6667C13.9618 6.375 14.2092 6.27517 14.4089 6.07552C14.6085 5.87587 14.7083 5.62847 14.7083 5.33333C14.7083 5.03819 14.6085 4.7908 14.4089 4.59115C14.2092 4.39149 13.9618 4.29167 13.6667 4.29167H5.33333C5.03819 4.29167 4.7908 4.39149 4.59115 4.59115C4.39149 4.7908 4.29167 5.03819 4.29167 5.33333ZM15.75 20.9583C14.309 20.9583 13.0807 20.4505 12.0651 19.4349C11.0495 18.4193 10.5417 17.191 10.5417 15.75C10.5417 14.309 11.0495 13.0807 12.0651 12.0651C13.0807 11.0495 14.309 10.5417 15.75 10.5417C17.191 10.5417 18.4193 11.0495 19.4349 12.0651C20.4505 13.0807 20.9583 14.309 20.9583 15.75C20.9583 17.191 20.4505 18.4193 19.4349 19.4349C18.4193 20.4505 17.191 20.9583 15.75 20.9583ZM15.2292 16.2708V18.3542C15.2292 18.4931 15.2813 18.6146 15.3854 18.7188C15.4896 18.8229 15.6111 18.875 15.75 18.875C15.8889 18.875 16.0104 18.8229 16.1146 18.7188C16.2188 18.6146 16.2708 18.4931 16.2708 18.3542V16.2708H18.3542C18.4931 16.2708 18.6146 16.2188 18.7188 16.1146C18.8229 16.0104 18.875 15.8889 18.875 15.75C18.875 15.6111 18.8229 15.4896 18.7188 15.3854C18.6146 15.2813 18.4931 15.2292 18.3542 15.2292H16.2708V13.1458C16.2708 13.0069 16.2188 12.8854 16.1146 12.7813C16.0104 12.6771 15.8889 12.625 15.75 12.625C15.6111 12.625 15.4896 12.6771 15.3854 12.7813C15.2813 12.8854 15.2292 13.0069 15.2292 13.1458V15.2292H13.1458C13.0069 15.2292 12.8854 15.2813 12.7813 15.3854C12.6771 15.4896 12.625 15.6111 12.625 15.75C12.625 15.8889 12.6771 16.0104 12.7813 16.1146C12.8854 16.2188 13.0069 16.2708 13.1458 16.2708H15.2292Z" fill="#999999"/>
</svg>
