<svg width="31" height="22" viewBox="0 0 31 22" fill="none" xmlns="http://www.w3.org/2000/svg">
<path d="M6.39741 13.958C7.30856 13.958 8.19548 14.0598 9.05816 14.2633C9.92084 14.4669 10.7787 14.7722 11.6317 15.1793V3.72213C10.8368 3.25687 9.99354 2.90792 9.10178 2.67528C8.21002 2.44265 7.30856 2.32633 6.39741 2.32633C5.69951 2.32633 5.00646 2.39418 4.31825 2.52989C3.63005 2.66559 2.96607 2.86914 2.32633 3.14055V14.6559C3.00485 14.4233 3.67851 14.2488 4.34733 14.1325C5.01615 14.0162 5.69951 13.958 6.39741 13.958ZM13.958 15.1793C14.811 14.7722 15.6688 14.4669 16.5315 14.2633C17.3942 14.0598 18.2811 13.958 19.1922 13.958C19.8901 13.958 20.5735 14.0162 21.2423 14.1325C21.9111 14.2488 22.5848 14.4233 23.2633 14.6559V3.14055C22.6236 2.86914 21.9596 2.66559 21.2714 2.52989C20.5832 2.39418 19.8901 2.32633 19.1922 2.32633C18.2811 2.32633 17.3796 2.44265 16.4879 2.67528C15.5961 2.90792 14.7528 3.25687 13.958 3.72213V15.1793ZM12.7948 18C12.5234 18 12.2666 17.9661 12.0242 17.8982C11.7819 17.8304 11.5541 17.7383 11.3409 17.622C10.5848 17.1761 9.78998 16.8417 8.95638 16.6187C8.12278 16.3958 7.26979 16.2843 6.39741 16.2843C5.5832 16.2843 4.78352 16.391 3.99838 16.6042C3.21325 16.8174 2.46204 17.1179 1.74475 17.5057C1.33764 17.7189 0.945073 17.7092 0.567044 17.4766C0.189015 17.2439 0 16.9047 0 16.4588V2.44265C0 2.2294 0.0533118 2.02585 0.159935 1.83199C0.266559 1.63813 0.426494 1.49273 0.639741 1.3958C1.5315 0.930533 2.46204 0.581583 3.43134 0.34895C4.40065 0.116317 5.38934 0 6.39741 0C7.52181 0 8.62197 0.145396 9.6979 0.436187C10.7738 0.726979 11.8061 1.16317 12.7948 1.74475C13.7835 1.16317 14.8158 0.726979 15.8918 0.436187C16.9677 0.145396 18.0679 0 19.1922 0C20.2003 0 21.189 0.116317 22.1583 0.34895C23.1276 0.581583 24.0582 0.930533 24.9499 1.3958C25.1632 1.49273 25.3231 1.63813 25.4297 1.83199C25.5363 2.02585 25.5897 2.2294 25.5897 2.44265V16.4588C25.5897 16.9047 25.4006 17.2439 25.0226 17.4766C24.6446 17.7092 24.252 17.7189 23.8449 17.5057C23.1276 17.1179 22.3764 16.8174 21.5913 16.6042C20.8061 16.391 20.0065 16.2843 19.1922 16.2843C18.3199 16.2843 17.4669 16.3958 16.6333 16.6187C15.7997 16.8417 15.0048 17.1761 14.2488 17.622C14.0355 17.7383 13.8078 17.8304 13.5654 17.8982C13.3231 17.9661 13.0662 18 12.7948 18ZM15.1212 5.55412C15.1212 5.37964 15.1842 5.20032 15.3102 5.01616C15.4362 4.83199 15.5767 4.71082 15.7318 4.65267C16.294 4.4588 16.8562 4.31341 17.4184 4.21648C17.9806 4.11955 18.5719 4.07108 19.1922 4.07108C19.58 4.07108 19.9628 4.09531 20.3409 4.14378C20.7189 4.19225 21.0921 4.25525 21.4604 4.33279C21.6349 4.37157 21.7851 4.4685 21.9111 4.62359C22.0372 4.77868 22.1002 4.95315 22.1002 5.14701C22.1002 5.47657 21.9935 5.7189 21.7803 5.87399C21.567 6.02908 21.2956 6.06785 20.9661 5.99031C20.6947 5.93215 20.4087 5.88853 20.1082 5.85945C19.8078 5.83037 19.5024 5.81583 19.1922 5.81583C18.6882 5.81583 18.1939 5.8643 17.7092 5.96123C17.2246 6.05816 16.7593 6.18417 16.3134 6.33926C15.9645 6.47496 15.6785 6.46527 15.4556 6.31018C15.2326 6.15509 15.1212 5.90307 15.1212 5.55412ZM15.1212 11.9515C15.1212 11.7771 15.1842 11.5977 15.3102 11.4136C15.4362 11.2294 15.5767 11.1082 15.7318 11.0501C16.294 10.8562 16.8562 10.7108 17.4184 10.6139C17.9806 10.517 18.5719 10.4685 19.1922 10.4685C19.58 10.4685 19.9628 10.4927 20.3409 10.5412C20.7189 10.5897 21.0921 10.6527 21.4604 10.7302C21.6349 10.769 21.7851 10.8659 21.9111 11.021C22.0372 11.1761 22.1002 11.3506 22.1002 11.5444C22.1002 11.874 21.9935 12.1163 21.7803 12.2714C21.567 12.4265 21.2956 12.4653 20.9661 12.3877C20.6947 12.3296 20.4087 12.2859 20.1082 12.2569C19.8078 12.2278 19.5024 12.2132 19.1922 12.2132C18.6882 12.2132 18.1939 12.2569 17.7092 12.3441C17.2246 12.4313 16.7593 12.5525 16.3134 12.7076C15.9645 12.8433 15.6785 12.8384 15.4556 12.6931C15.2326 12.5477 15.1212 12.3005 15.1212 11.9515ZM15.1212 8.75283C15.1212 8.57835 15.1842 8.39903 15.3102 8.21486C15.4362 8.03069 15.5767 7.90953 15.7318 7.85137C16.294 7.65751 16.8562 7.51212 17.4184 7.41519C17.9806 7.31826 18.5719 7.26979 19.1922 7.26979C19.58 7.26979 19.9628 7.29402 20.3409 7.34249C20.7189 7.39095 21.0921 7.45396 21.4604 7.5315C21.6349 7.57027 21.7851 7.66721 21.9111 7.82229C22.0372 7.97738 22.1002 8.15186 22.1002 8.34572C22.1002 8.67528 21.9935 8.91761 21.7803 9.0727C21.567 9.22779 21.2956 9.26656 20.9661 9.18901C20.6947 9.13086 20.4087 9.08724 20.1082 9.05816C19.8078 9.02908 19.5024 9.01454 19.1922 9.01454C18.6882 9.01454 18.1939 9.063 17.7092 9.15993C17.2246 9.25687 16.7593 9.38288 16.3134 9.53796C15.9645 9.67367 15.6785 9.66397 15.4556 9.50889C15.2326 9.3538 15.1212 9.10178 15.1212 8.75283Z" fill="#999999"/>
<circle cx="23.5" cy="14.5" r="7.5" fill="white"/>
<path d="M23.5 20C24.9587 20 26.3576 19.4205 27.3891 18.3891C28.4205 17.3576 29 15.9587 29 14.5C29 13.0413 28.4205 11.6424 27.3891 10.6109C26.3576 9.57946 24.9587 9 23.5 9C22.0413 9 20.6424 9.57946 19.6109 10.6109C18.5795 11.6424 18 13.0413 18 14.5C18 15.9587 18.5795 17.3576 19.6109 18.3891C20.6424 19.4205 22.0413 20 23.5 20ZM22.9844 16.3906V15.0156H21.6094C21.3236 15.0156 21.0938 14.7857 21.0938 14.5C21.0938 14.2143 21.3236 13.9844 21.6094 13.9844H22.9844V12.6094C22.9844 12.3236 23.2143 12.0938 23.5 12.0938C23.7857 12.0938 24.0156 12.3236 24.0156 12.6094V13.9844H25.3906C25.6764 13.9844 25.9062 14.2143 25.9062 14.5C25.9062 14.7857 25.6764 15.0156 25.3906 15.0156H24.0156V16.3906C24.0156 16.6764 23.7857 16.9062 23.5 16.9062C23.2143 16.9062 22.9844 16.6764 22.9844 16.3906Z" fill="#999999"/>
</svg>
