<svg width="98" height="85" viewBox="0 0 98 85" fill="none" xmlns="http://www.w3.org/2000/svg">
<path d="M37.4344 38.7388C30.6614 43.6668 24.5004 43.4618 19.1614 43.6668C13.8254 43.8718 3.3544 36.8908 10.9504 25.5998C18.5464 14.3088 31.2764 17.1828 41.9524 16.5658C52.6284 15.9498 60.2244 10.2018 69.2604 6.91578C78.2934 3.63078 87.7374 7.53179 89.7904 16.5658C91.8424 25.5998 81.7824 34.2228 74.2884 35.8648C66.7964 37.5078 63.3054 43.8718 63.3054 43.8718C67.4124 39.9708 74.1874 39.3548 83.6314 37.0968C93.0734 34.8378 100.672 24.9848 95.5374 12.4588C90.4054 -0.0652218 75.6234 -2.73322 64.5364 2.60378C53.4494 7.94078 48.7264 10.4058 27.9934 10.6108C7.2554 10.8158 -10.6086 36.2748 7.46041 43.8718C25.5284 51.4688 37.4344 38.7388 37.4344 38.7388Z" fill="#fff"/>
<path d="M52.0133 65.2238C66.3833 64.1988 75.8273 66.0458 75.8273 66.0458C75.8273 66.0458 64.1763 59.9888 51.4473 60.6048C38.7183 61.2208 28.0923 66.3178 28.0923 66.3178C28.0923 66.3178 27.5803 54.5998 21.2153 46.1838C21.2153 46.1838 22.4483 58.4508 22.6533 65.0208C22.8603 71.5888 21.9343 75.9008 21.9343 75.9008C21.9343 75.9008 37.6393 66.2498 52.0133 65.2238Z" fill="#fff"/>
<path d="M82.1947 77.9558C82.1947 77.9558 80.4657 69.1248 79.6027 61.7338C78.7377 54.3418 79.5507 38.0188 79.5507 38.0188C74.1517 49.5168 76.5777 71.9988 76.5777 71.9988C76.5777 71.9988 70.1557 71.3048 56.7337 72.1008C40.3327 73.0758 25.4847 83.5678 24.0137 84.6338C24.8727 84.0388 30.2867 80.7438 48.2867 77.9548C68.1567 74.8758 82.1947 77.9558 82.1947 77.9558Z" fill="#fff"/>
<path d="M24.0143 84.6348C23.9243 84.6978 23.8833 84.7298 23.8833 84.7298C23.8833 84.7298 23.9343 84.6928 24.0143 84.6348Z" fill="#fff"/>
</svg>
